<?xml version="1.0" encoding="utf-8"?>
<!-- Generator: Adobe Illustrator 17.1.0, SVG Export Plug-In . SVG Version: 6.00 Build 0)  -->
<!DOCTYPE svg PUBLIC "-//W3C//DTD SVG 1.1//EN" "http://www.w3.org/Graphics/SVG/1.1/DTD/svg11.dtd">
<svg version="1.1" id="Calque_1" xmlns="http://www.w3.org/2000/svg" xmlns:xlink="http://www.w3.org/1999/xlink" x="0px" y="0px"
	 viewBox="0 0 1920 1080" enable-background="new 0 0 1920 1080" xml:space="preserve">
<g opacity="0.1">
	<g>
		<path d="M1963.2,603.1l-309.6,308.4l-130.7-130.2l-96.4,96.1l178.9,178.2c13.3,13.3,30.8,19.9,48.2,19.9
			c17.4,0,34.9-6.6,48.2-19.9l357.8-356.5L1963.2,603.1z M192.8,700.6L137.3,638c0,0-64.1,56.9-131.8-0.1
			c-67.8,57-131.8,0.1-131.8,0.1l-55.4,62.6c0,0,44.1,29.5,18.5,99.2c-29,78.9-37.1,193,168.8,275.7
			c205.8-82.7,197.8-196.8,168.8-275.7C148.6,730.1,192.8,700.6,192.8,700.6z"/>
	</g>
</g>
</svg>
